<svg xmlns="http://www.w3.org/2000/svg" xmlns:xlink="http://www.w3.org/1999/xlink" width="1366" zoomAndPan="magnify" viewBox="0 0 1024.5 576" height="768" preserveAspectRatio="xMidYMid meet" version="1.2"><defs/><g id="a81fb354ce"><path style=" stroke:none;fill-rule:nonzero;fill:#fcb139;fill-opacity:1;" d="M 210.320312 95.535156 C 214.441406 96.425781 218.289062 99.375 221.871094 101.550781 L 224.089844 102.890625 C 230.550781 106.808594 236.953125 110.820312 243.351562 114.84375 C 249.949219 118.984375 256.597656 123.039062 263.261719 127.074219 C 270.523438 131.46875 277.753906 135.90625 284.914062 140.464844 C 289.628906 143.460938 294.363281 146.421875 299.117188 149.351562 C 306.238281 153.753906 313.339844 158.191406 320.433594 162.636719 C 324.9375 165.457031 329.453125 168.257812 333.980469 171.039062 L 335.4375 171.933594 C 337.75 173.351562 340.0625 174.765625 342.375 176.179688 C 358.441406 186.023438 358.441406 186.023438 360.839844 188.421875 C 360.921875 189.679688 360.949219 190.941406 360.949219 192.203125 L 360.960938 194.695312 L 360.957031 197.464844 L 360.964844 200.378906 C 360.972656 203.0625 360.972656 205.746094 360.972656 208.429688 C 360.976562 211.320312 360.980469 214.210938 360.988281 217.101562 C 361 223.425781 361.003906 229.75 361.007812 236.074219 L 361.015625 247.910156 C 361.027344 258.828125 361.035156 269.746094 361.039062 280.664062 L 361.039062 291.300781 C 361.046875 302.722656 361.058594 314.144531 361.078125 325.566406 C 361.097656 337.28125 361.109375 348.996094 361.109375 360.710938 C 361.109375 367.292969 361.117188 373.875 361.128906 380.457031 C 361.144531 386.058594 361.148438 391.664062 361.140625 397.265625 C 361.136719 400.128906 361.140625 402.992188 361.148438 405.851562 C 361.160156 408.949219 361.15625 412.046875 361.148438 415.144531 L 361.167969 417.902344 L 361.152344 420.40625 L 361.152344 422.574219 C 360.839844 424.398438 360.839844 424.398438 359.691406 425.816406 C 357.847656 427.292969 355.90625 428.503906 353.890625 429.730469 L 351.1875 431.378906 L 349.761719 432.246094 C 347.277344 433.75 344.800781 435.269531 342.320312 436.78125 L 340.820312 437.699219 C 336.6875 440.234375 332.574219 442.808594 328.488281 445.421875 C 322.546875 449.191406 316.570312 452.902344 310.5625 456.5625 L 308.160156 458.03125 L 305.851562 459.433594 L 303.835938 460.664062 C 301.757812 461.878906 299.664062 463.070312 297.558594 464.234375 L 295.503906 465.371094 L 293.941406 466.238281 L 293.957031 464.71875 C 294.21875 434.96875 294.417969 405.222656 294.539062 375.476562 C 294.554688 371.902344 294.570312 368.332031 294.585938 364.757812 L 294.59375 362.605469 C 294.644531 351.089844 294.738281 339.578125 294.84375 328.066406 C 294.953125 316.25 295.019531 304.433594 295.042969 292.621094 C 295.058594 285.328125 295.109375 278.042969 295.207031 270.753906 C 295.265625 265.753906 295.285156 260.753906 295.269531 255.753906 C 295.261719 252.867188 295.273438 249.984375 295.335938 247.101562 C 295.683594 237.3125 295.683594 237.3125 293.941406 227.75 C 292.035156 225 289.742188 223.449219 286.757812 222.007812 C 285.261719 221.382812 283.75 220.800781 282.234375 220.21875 C 280.589844 219.234375 278.972656 218.210938 277.378906 217.148438 C 275.808594 216.167969 274.242188 215.183594 272.671875 214.203125 L 270.082031 212.585938 C 263.476562 208.464844 256.835938 204.410156 250.183594 200.375 C 244.214844 196.75 238.289062 193.070312 232.375 189.363281 L 229.820312 187.769531 C 226.300781 185.566406 222.785156 183.359375 219.300781 181.09375 L 217.769531 180.109375 C 216.507812 179.292969 215.246094 178.472656 213.992188 177.648438 L 211.992188 176.707031 C 209.140625 177.097656 207.097656 178.367188 204.695312 179.898438 L 202.324219 181.398438 L 199.761719 183.035156 C 197.46875 184.484375 195.175781 185.933594 192.878906 187.382812 C 187.796875 190.597656 182.675781 193.746094 177.550781 196.894531 L 172.058594 200.269531 L 169.390625 201.910156 C 158.972656 208.332031 148.574219 214.78125 138.195312 221.265625 L 135.523438 222.929688 C 134.710938 223.4375 133.898438 223.945312 133.0625 224.46875 L 130.863281 225.839844 C 129.273438 226.789062 129.273438 226.789062 128.371094 227.75 C 128.289062 229.023438 128.253906 230.300781 128.253906 231.578125 L 128.242188 234.101562 L 128.238281 236.90625 L 128.226562 239.859375 C 128.214844 242.574219 128.207031 245.292969 128.203125 248.007812 C 128.195312 250.933594 128.183594 253.863281 128.171875 256.789062 C 128.15625 261.859375 128.140625 266.933594 128.125 272.007812 C 128.105469 279.339844 128.085938 286.675781 128.058594 294.011719 C 128.019531 305.910156 127.984375 317.808594 127.949219 329.707031 C 127.902344 345.558594 127.855469 361.414062 127.804688 377.265625 C 127.710938 406.921875 127.621094 436.582031 127.535156 466.238281 C 125.945312 465.3125 124.355469 464.386719 122.769531 463.464844 L 120.089844 461.902344 C 116.507812 459.796875 112.976562 457.613281 109.449219 455.410156 C 104.496094 452.324219 99.535156 449.253906 94.558594 446.203125 L 91.765625 444.492188 C 90.015625 443.417969 88.261719 442.347656 86.507812 441.277344 C 84.808594 440.238281 83.128906 439.171875 81.460938 438.085938 C 79.066406 436.566406 76.621094 435.367188 74.046875 434.1875 C 69.285156 431.832031 64.917969 429.351562 61.472656 425.234375 C 58.441406 418.125 59.289062 409.898438 59.46875 402.339844 C 59.46875 400.011719 59.449219 397.6875 59.429688 395.359375 C 59.390625 389.714844 59.445312 384.078125 59.527344 378.433594 C 59.621094 371.859375 59.625 365.28125 59.625 358.707031 C 59.632812 346.976562 59.714844 335.242188 59.84375 323.511719 C 59.96875 312.136719 60.039062 300.757812 60.050781 289.378906 L 60.050781 285.132812 L 60.058594 280.898438 L 60.058594 278.792969 C 60.070312 267.933594 60.132812 257.078125 60.199219 246.222656 C 60.222656 242.292969 60.238281 238.359375 60.25 234.429688 C 60.265625 228.199219 60.304688 221.964844 60.386719 215.734375 C 60.425781 212.890625 60.453125 210.042969 60.449219 207.195312 C 60.453125 204.109375 60.5 201.027344 60.554688 197.941406 L 60.53125 195.21875 C 60.601562 192.773438 60.734375 190.753906 61.472656 188.421875 C 63.4375 186.210938 65.585938 184.820312 68.164062 183.402344 C 68.964844 182.875 69.769531 182.34375 70.597656 181.800781 L 72.867188 180.421875 L 75.460938 178.835938 L 78.195312 177.175781 C 80.148438 175.984375 82.097656 174.792969 84.050781 173.597656 L 85.542969 172.6875 C 90.363281 169.738281 95.152344 166.742188 99.9375 163.734375 C 107.800781 158.8125 115.683594 153.929688 123.589844 149.078125 C 129.714844 145.3125 135.816406 141.511719 141.90625 137.691406 C 149.226562 133.105469 156.578125 128.574219 163.960938 124.097656 C 171.453125 119.546875 178.90625 114.933594 186.351562 110.308594 C 190.296875 107.859375 194.246094 105.410156 198.195312 102.964844 L 200.421875 101.582031 C 201.761719 100.753906 203.101562 99.925781 204.445312 99.105469 C 205.820312 98.246094 207.148438 97.324219 208.464844 96.378906 Z M 210.320312 95.535156 "/><path style=" stroke:none;fill-rule:nonzero;fill:#f1673f;fill-opacity:1;" d="M 211.585938 232.09375 C 213.761719 232.804688 215.519531 233.671875 217.480469 234.851562 L 219.714844 236.179688 L 222.027344 237.582031 L 224.183594 238.867188 C 225.753906 239.808594 227.308594 240.773438 228.847656 241.765625 C 231.273438 243.265625 233.753906 244.414062 236.367188 245.550781 C 241.339844 247.890625 245.941406 250.363281 249.621094 254.527344 C 252.625 261.148438 252.101562 268.777344 251.980469 275.898438 C 251.949219 278.8125 252.019531 281.722656 252.074219 284.632812 C 252.167969 290.328125 252.167969 296.015625 252.132812 301.710938 C 252.101562 306.339844 252.109375 310.972656 252.136719 315.601562 L 252.171875 321.636719 C 252.242188 334.214844 252.203125 346.789062 252.128906 359.367188 C 252.0625 370.851562 252.125 382.328125 252.25 393.808594 C 252.378906 405.628906 252.425781 417.441406 252.382812 429.261719 L 252.371094 433.277344 L 252.363281 435.273438 C 252.351562 439.894531 252.394531 444.511719 252.457031 449.128906 C 252.535156 454.769531 252.53125 460.402344 252.433594 466.042969 C 252.382812 468.917969 252.371094 471.78125 252.449219 474.65625 C 252.761719 488.660156 252.761719 488.660156 249.621094 494.6875 C 244.273438 500.230469 237.496094 503.464844 230.605469 506.714844 C 226.4375 508.796875 222.660156 511.382812 218.839844 514.039062 C 214.210938 517.199219 214.210938 517.199219 211.992188 518.117188 C 209.941406 517.8125 209.941406 517.8125 207.8125 516.445312 L 204.390625 514.496094 C 202.332031 513.269531 200.289062 512.019531 198.257812 510.746094 C 194.332031 508.292969 190.441406 506.050781 186.242188 504.105469 C 181.171875 501.605469 176.449219 498.992188 172.691406 494.6875 C 169.632812 488.007812 170.140625 480.378906 170.296875 473.183594 C 170.339844 470.265625 170.277344 467.351562 170.230469 464.433594 C 170.152344 458.734375 170.171875 453.039062 170.226562 447.339844 C 170.273438 442.707031 170.277344 438.070312 170.261719 433.4375 L 170.253906 431.429688 L 170.238281 427.398438 C 170.1875 414.8125 170.253906 402.230469 170.355469 389.648438 C 170.441406 378.867188 170.433594 368.089844 170.355469 357.3125 C 170.25 343.429688 170.230469 329.550781 170.308594 315.667969 L 170.316406 313.671875 C 170.332031 309.046875 170.308594 304.421875 170.269531 299.796875 C 170.222656 294.15625 170.242188 288.511719 170.335938 282.871094 C 170.386719 279.996094 170.40625 277.125 170.347656 274.25 C 170.140625 260.175781 170.140625 260.175781 172.691406 254.527344 C 176.894531 249.761719 182.429688 247.097656 188.175781 244.59375 C 190.996094 243.3125 193.453125 241.71875 196.027344 239.996094 L 200.703125 237.058594 L 203.136719 235.496094 L 205.484375 234.035156 L 207.523438 232.742188 C 209.484375 231.933594 209.484375 231.933594 211.585938 232.09375 "/><path style=" stroke:none;fill-rule:nonzero;fill:#de3746;fill-opacity:1;" d="M 321.539062 168.339844 C 326.625 170.257812 331.230469 173 335.960938 175.660156 L 338.734375 177.203125 C 352.328125 184.828125 352.328125 184.828125 356.085938 188.789062 L 357.496094 190.09375 C 359.242188 189.796875 359.242188 189.796875 360.839844 189.257812 C 360.90625 222.699219 360.953125 256.140625 360.976562 289.582031 L 360.980469 291.710938 C 360.992188 303.097656 361.007812 314.484375 361.03125 325.871094 C 361.054688 337.546875 361.070312 349.222656 361.074219 360.902344 C 361.078125 368.109375 361.089844 375.320312 361.109375 382.53125 C 361.125 387.46875 361.128906 392.40625 361.125 397.347656 C 361.125 400.199219 361.125 403.050781 361.140625 405.90625 C 361.152344 408.992188 361.148438 412.082031 361.140625 415.167969 L 361.164062 417.917969 L 361.148438 420.417969 L 361.152344 422.578125 C 360.839844 424.398438 360.839844 424.398438 359.691406 425.816406 C 357.847656 427.292969 355.90625 428.503906 353.886719 429.730469 L 351.1875 431.378906 L 349.761719 432.246094 C 347.277344 433.75 344.800781 435.269531 342.320312 436.78125 L 340.820312 437.699219 C 336.6875 440.234375 332.574219 442.808594 328.488281 445.421875 C 322.546875 449.191406 316.570312 452.902344 310.5625 456.5625 L 308.160156 458.03125 L 305.851562 459.433594 L 303.835938 460.664062 C 301.757812 461.878906 299.664062 463.070312 297.558594 464.234375 L 295.503906 465.371094 L 293.941406 466.238281 C 293.933594 432.40625 293.921875 398.59375 293.894531 364.792969 L 293.894531 362.640625 C 293.890625 351.128906 293.886719 339.613281 293.878906 328.101562 C 293.871094 316.292969 293.863281 304.488281 293.863281 292.679688 C 293.863281 285.390625 293.859375 278.097656 293.851562 270.808594 C 293.847656 265.816406 293.847656 260.820312 293.847656 255.828125 C 293.847656 252.945312 293.847656 250.058594 293.84375 247.175781 C 293.839844 244.054688 293.839844 240.933594 293.839844 237.8125 L 293.832031 235.023438 L 293.839844 232.503906 L 293.839844 230.320312 C 293.941406 228.585938 293.941406 228.585938 294.777344 226.914062 C 296.136719 226.332031 297.5 225.757812 298.867188 225.203125 C 302.234375 223.675781 305.300781 221.617188 308.417969 219.644531 C 309.753906 218.800781 311.09375 217.960938 312.433594 217.125 L 314.207031 216.003906 C 315.683594 215.199219 315.683594 215.199219 317.355469 215.199219 L 316.519531 212.6875 L 318.191406 212.6875 L 317.355469 211.015625 C 315.949219 206.789062 316.273438 202.613281 317.132812 198.304688 C 317.410156 197.082031 317.691406 195.863281 317.984375 194.644531 L 318.433594 192.679688 C 319.167969 189.476562 319.980469 186.292969 320.859375 183.125 L 321.335938 181.417969 C 321.777344 179.882812 322.222656 178.351562 322.675781 176.820312 C 323.21875 174.148438 323.15625 172.59375 322.375 170.011719 Z M 321.539062 168.339844 "/><path style=" stroke:none;fill-rule:nonzero;fill:#fa923a;fill-opacity:1;" d="M 125.863281 228.585938 L 127.535156 228.585938 L 127.535156 466.238281 C 121.453125 462.6875 115.417969 459.136719 109.449219 455.410156 C 104.496094 452.324219 99.535156 449.253906 94.558594 446.203125 L 91.765625 444.492188 C 90.015625 443.417969 88.261719 442.347656 86.507812 441.277344 C 84.804688 440.234375 83.125 439.160156 81.464844 438.050781 C 79.066406 436.53125 76.679688 435.492188 74.035156 434.472656 C 69.898438 432.679688 66.390625 430.660156 63.101562 427.546875 C 60.777344 424.246094 60.207031 421.085938 59.8125 417.167969 C 59.335938 410.253906 59.53125 403.328125 59.75 396.410156 C 59.851562 392.570312 59.859375 388.730469 59.875 384.886719 C 59.921875 377.609375 60.058594 370.339844 60.21875 363.0625 C 60.402344 354.835938 60.484375 346.613281 60.558594 338.382812 C 60.671875 326.210938 60.828125 314.035156 61.070312 301.863281 C 61.097656 300.558594 61.121094 299.253906 61.148438 297.949219 C 61.214844 294.40625 61.304688 290.859375 61.421875 287.316406 C 61.476562 285.34375 61.5 283.371094 61.527344 281.398438 C 61.566406 280.042969 61.605469 278.683594 61.640625 277.328125 L 61.648438 275.425781 C 61.714844 273.632812 61.714844 273.632812 62.308594 270.425781 C 65.203125 266.941406 68.367188 265.054688 72.34375 262.949219 C 73.351562 262.359375 74.359375 261.769531 75.363281 261.171875 C 77.34375 260 79.339844 258.855469 81.347656 257.734375 C 84.738281 255.8125 87.972656 253.707031 91.210938 251.546875 C 92.304688 250.835938 93.402344 250.125 94.503906 249.417969 L 96.261719 248.28125 C 98.683594 246.726562 101.113281 245.183594 103.542969 243.636719 L 106.367188 241.835938 C 108.203125 240.667969 110.039062 239.503906 111.875 238.339844 C 116.261719 235.546875 120.515625 232.707031 124.585938 229.460938 Z M 125.863281 228.585938 "/><path style=" stroke:none;fill-rule:nonzero;fill:#b12743;fill-opacity:1;" d="M 249.621094 257.039062 C 250.121094 287.085938 250.503906 317.128906 250.734375 347.179688 C 250.757812 350.734375 250.789062 354.285156 250.816406 357.839844 L 250.832031 359.980469 C 250.929688 371.414062 251.101562 382.839844 251.300781 394.269531 C 251.503906 406.011719 251.625 417.75 251.667969 429.492188 C 251.699219 436.730469 251.792969 443.964844 251.96875 451.203125 C 252.085938 456.175781 252.117188 461.144531 252.089844 466.117188 C 252.074219 468.984375 252.097656 471.839844 252.214844 474.703125 C 252.703125 488.671875 252.703125 488.671875 249.621094 494.6875 C 244.292969 500.242188 237.511719 503.480469 230.625 506.71875 C 226.417969 508.800781 222.570312 511.371094 218.683594 513.988281 C 216.496094 515.4375 214.265625 516.8125 211.992188 518.117188 L 210.320312 517.28125 C 210.101562 487.164062 209.957031 457.046875 209.914062 426.925781 L 209.898438 416.253906 L 209.894531 414.105469 C 209.871094 402.644531 209.800781 391.1875 209.710938 379.726562 C 209.617188 367.960938 209.578125 356.199219 209.59375 344.433594 C 209.601562 337.175781 209.5625 329.921875 209.472656 322.667969 C 209.414062 317.6875 209.410156 312.707031 209.449219 307.726562 C 209.46875 304.855469 209.460938 301.988281 209.398438 299.117188 C 209.128906 285.058594 209.128906 285.058594 211.15625 279.632812 C 214.378906 275.441406 218.796875 273.25 223.578125 271.230469 C 226.394531 269.96875 228.855469 268.296875 231.429688 266.601562 C 233.273438 265.449219 235.125 264.304688 236.972656 263.15625 L 238.417969 262.253906 C 239.8125 261.378906 241.210938 260.507812 242.613281 259.644531 L 245.058594 258.121094 C 247.113281 257.039062 247.113281 257.039062 249.621094 257.039062 "/><path style=" stroke:none;fill-rule:nonzero;fill:#f4733b;fill-opacity:1;" d="M 215.335938 103.066406 C 217.691406 102.910156 217.691406 102.910156 220.355469 103.066406 L 222.863281 105.578125 L 224.753906 105.085938 L 227.042969 104.742188 C 229.171875 105.664062 229.171875 105.664062 231.445312 107.117188 L 234.035156 108.746094 L 236.816406 110.546875 C 237.789062 111.160156 238.757812 111.773438 239.730469 112.386719 C 241.75 113.660156 243.765625 114.941406 245.777344 116.222656 C 250.402344 119.164062 255.085938 122.015625 259.761719 124.875 C 267.640625 129.726562 275.496094 134.609375 283.332031 139.523438 C 288.671875 142.871094 294.019531 146.199219 299.378906 149.511719 C 306.414062 153.859375 313.425781 158.242188 320.433594 162.636719 C 324.9375 165.457031 329.449219 168.261719 333.980469 171.039062 L 335.4375 171.933594 C 337.75 173.351562 340.0625 174.765625 342.375 176.179688 C 354.980469 183.898438 354.980469 183.898438 360.003906 187.585938 L 360.839844 189.257812 L 356.660156 190.933594 L 355.144531 188.734375 C 353.148438 186.339844 351.132812 185.042969 348.375 183.609375 C 343.054688 180.785156 337.863281 177.769531 332.671875 174.71875 L 329.894531 173.09375 C 327.664062 171.789062 325.4375 170.484375 323.210938 169.175781 L 324.046875 170.847656 C 323.628906 176.503906 322.1875 181.8125 320.699219 187.269531 C 317.394531 198.902344 317.394531 198.902344 317.828125 210.859375 C 318.191406 212.6875 318.191406 212.6875 317.355469 215.199219 C 315.652344 216.457031 315.652344 216.457031 313.425781 217.765625 L 310.988281 219.203125 L 308.417969 220.691406 L 305.898438 222.1875 C 298.351562 226.601562 298.351562 226.601562 293.941406 227.75 C 291.597656 226.707031 291.597656 226.707031 289.027344 224.875 C 287.996094 224.160156 286.960938 223.453125 285.921875 222.742188 L 284.167969 221.527344 C 280.40625 218.980469 276.53125 216.605469 272.671875 214.203125 L 270.0625 212.574219 C 264.246094 208.949219 258.410156 205.363281 252.550781 201.808594 C 245.816406 197.722656 239.109375 193.589844 232.429688 189.414062 L 230.050781 187.929688 C 228.53125 186.980469 227.023438 186.015625 225.527344 185.039062 C 222.859375 183.339844 222.859375 183.339844 219.871094 181.9375 C 216.644531 180.296875 213.589844 178.601562 211.15625 175.871094 C 209.523438 171.234375 209.699219 166.902344 209.894531 162.042969 C 209.910156 160.707031 209.917969 159.375 209.921875 158.039062 C 209.941406 155.257812 210 152.480469 210.089844 149.699219 C 210.203125 146.132812 210.25 142.570312 210.273438 139.003906 C 210.300781 135.59375 210.359375 132.1875 210.417969 128.78125 L 210.445312 126.8125 C 210.476562 124.980469 210.527344 123.148438 210.589844 121.316406 L 210.675781 118.160156 L 211.15625 115.621094 C 213.304688 113.515625 215.722656 112.453125 218.472656 111.28125 L 220.5 110.40625 L 222.027344 109.761719 C 218.636719 110.152344 215.785156 110.5 212.828125 112.273438 C 211.992188 110.597656 211.992188 110.597656 211.835938 108.089844 L 211.992188 105.578125 L 213.664062 103.90625 L 215.335938 104.742188 Z M 215.335938 103.066406 "/><path style=" stroke:none;fill-rule:nonzero;fill:#cc2944;fill-opacity:1;" d="M 359.167969 315.613281 L 360.839844 315.613281 C 360.898438 329.753906 360.941406 343.894531 360.96875 358.035156 C 360.984375 364.601562 361 371.164062 361.027344 377.730469 C 361.054688 383.453125 361.070312 389.171875 361.074219 394.894531 C 361.078125 397.925781 361.085938 400.957031 361.105469 403.984375 C 361.125 407.367188 361.125 410.746094 361.125 414.125 L 361.152344 417.179688 L 361.140625 419.964844 L 361.148438 422.390625 C 360.839844 424.398438 360.839844 424.398438 359.695312 425.84375 C 357.839844 427.292969 355.898438 428.507812 353.890625 429.730469 L 351.1875 431.378906 L 349.761719 432.246094 C 347.277344 433.75 344.800781 435.269531 342.324219 436.78125 L 340.824219 437.699219 C 336.6875 440.234375 332.578125 442.808594 328.488281 445.421875 C 321.695312 449.746094 314.828125 453.941406 307.941406 458.105469 C 303.164062 460.992188 303.164062 460.992188 298.507812 464.066406 L 296.449219 465.402344 L 294.777344 465.402344 L 294.777344 349.921875 L 296.449219 349.921875 L 296.507812 348.359375 L 297.285156 346.574219 C 299.253906 345.824219 301.058594 345.292969 303.089844 344.796875 C 308.625 343.28125 313.308594 341.121094 318.246094 338.207031 C 325.230469 334.113281 332.339844 330.863281 340.394531 329.472656 C 342.960938 328.886719 345.023438 327.816406 347.355469 326.597656 C 350.207031 325.109375 352.929688 323.785156 355.980469 322.78125 L 358.332031 321.472656 C 359.21875 318.46875 359.21875 318.46875 359.167969 315.613281 "/><path style=" stroke:none;fill-rule:nonzero;fill:#eb5241;fill-opacity:1;" d="M 172.691406 375.027344 L 173.527344 375.027344 L 173.527344 381.722656 C 179.214844 381.695312 183.921875 380.554688 189.152344 378.375 C 195.890625 375.605469 202.191406 374.816406 209.484375 375.027344 L 211.15625 375.863281 L 211.15625 517.28125 C 207.597656 516.09375 205.378906 515.3125 202.367188 513.417969 L 200.230469 512.085938 L 198.039062 510.691406 L 195.972656 509.398438 C 194.484375 508.464844 193.015625 507.503906 191.5625 506.515625 C 189.335938 505.085938 187.109375 504.121094 184.648438 503.167969 C 179.917969 501.117188 175.828125 498.882812 172.691406 494.6875 C 169.964844 486.765625 170.789062 477.773438 171.078125 469.507812 C 171.179688 466.179688 171.1875 462.855469 171.207031 459.527344 C 171.253906 453.238281 171.386719 446.957031 171.546875 440.671875 C 171.722656 433.507812 171.8125 426.347656 171.890625 419.183594 C 172.054688 404.460938 172.335938 389.746094 172.691406 375.027344 "/><path style=" stroke:none;fill-rule:nonzero;fill:#fdca62;fill-opacity:1;" d="M 63.980469 185.910156 L 65.652344 186.746094 L 63.144531 189.257812 L 64.6875 190.089844 C 67.242188 191.480469 69.792969 192.878906 72.34375 194.277344 L 73.875 195.121094 C 80.613281 198.832031 87.222656 202.691406 93.71875 206.8125 C 100.105469 210.847656 106.621094 214.652344 113.128906 218.480469 C 124.503906 225.171875 124.503906 225.171875 128.371094 227.75 C 120.761719 233.363281 112.949219 238.53125 104.9375 243.546875 C 100.800781 246.132812 96.707031 248.777344 92.621094 251.441406 L 90.574219 252.777344 C 86.640625 255.34375 82.710938 257.914062 78.777344 260.488281 L 76.113281 262.230469 L 70.953125 265.605469 L 68.597656 267.144531 L 66.507812 268.515625 C 64.816406 269.589844 64.816406 269.589844 63.144531 270.425781 L 62.308594 285.488281 L 61.472656 285.488281 C 61.414062 272.875 61.371094 260.265625 61.34375 247.652344 C 61.332031 241.796875 61.3125 235.9375 61.285156 230.082031 C 61.257812 224.433594 61.242188 218.785156 61.234375 213.136719 C 61.230469 210.980469 61.222656 208.820312 61.207031 206.664062 C 61.1875 203.648438 61.1875 200.632812 61.1875 197.617188 L 61.160156 194.894531 L 61.171875 192.410156 L 61.164062 190.246094 L 61.472656 188.421875 C 62.746094 186.917969 62.746094 186.917969 63.980469 185.910156 "/><path style=" stroke:none;fill-rule:nonzero;fill:#911f48;fill-opacity:1;" d="M 294.777344 385.90625 C 298.800781 387.246094 301.550781 388.472656 305.097656 390.625 L 306.605469 391.535156 C 308.222656 392.511719 309.835938 393.496094 311.449219 394.480469 C 312.578125 395.164062 313.703125 395.847656 314.828125 396.527344 C 317.65625 398.238281 320.476562 399.957031 323.296875 401.675781 C 325.65625 403.109375 328.011719 404.546875 330.371094 405.976562 C 333.546875 407.910156 336.722656 409.847656 339.894531 411.785156 C 343.71875 414.117188 347.546875 416.4375 351.378906 418.75 L 352.886719 419.660156 C 355.214844 421.058594 357.550781 422.390625 360.003906 423.5625 L 360.003906 426.070312 C 358.722656 427.117188 358.722656 427.117188 356.902344 428.160156 L 354.867188 429.351562 L 352.632812 430.621094 C 351.078125 431.53125 349.527344 432.441406 347.972656 433.351562 L 345.578125 434.75 C 342.222656 436.738281 338.933594 438.824219 335.648438 440.925781 C 328.273438 445.621094 320.835938 450.210938 313.378906 454.777344 L 310.746094 456.394531 L 308.183594 457.964844 C 304.84375 460.042969 301.546875 462.1875 298.257812 464.34375 L 296.449219 465.402344 L 294.777344 465.402344 Z M 294.777344 385.90625 "/><path style=" stroke:none;fill-rule:nonzero;fill:#f1673f;fill-opacity:1;" d="M 127.535156 385.90625 L 127.535156 466.238281 C 121.453125 462.6875 115.417969 459.136719 109.449219 455.410156 L 104.878906 452.566406 L 102.460938 451.066406 C 98.898438 448.855469 95.324219 446.664062 91.75 444.46875 C 88.992188 442.769531 86.230469 441.070312 83.476562 439.367188 C 80.089844 437.273438 76.691406 435.203125 73.285156 433.148438 L 68.894531 430.464844 L 66.851562 429.253906 L 65.019531 428.125 L 63.421875 427.160156 L 62.308594 426.070312 L 62.308594 422.722656 L 64.390625 422.566406 C 68.226562 421.679688 70.871094 419.867188 74.121094 417.703125 C 75.523438 416.792969 76.925781 415.882812 78.332031 414.976562 L 80.664062 413.46875 C 85.523438 410.375 90.460938 407.402344 95.390625 404.417969 L 98.371094 402.613281 C 100.25 401.472656 102.125 400.339844 104.007812 399.207031 C 105.71875 398.171875 107.425781 397.128906 109.128906 396.078125 L 111.40625 394.683594 L 113.394531 393.457031 C 114.992188 392.597656 114.992188 392.597656 116.664062 392.597656 L 116.664062 390.925781 C 118.160156 390.085938 119.65625 389.25 121.15625 388.414062 L 123.6875 387.003906 C 125.863281 385.90625 125.863281 385.90625 127.535156 385.90625 "/><path style=" stroke:none;fill-rule:nonzero;fill:#f16a42;fill-opacity:1;" d="M 211.585938 232.09375 C 213.761719 232.804688 215.519531 233.671875 217.480469 234.851562 L 219.683594 236.160156 L 222.027344 237.582031 L 224.453125 239.039062 C 226.132812 240.054688 227.8125 241.070312 229.492188 242.089844 C 232.046875 243.640625 234.609375 245.171875 237.175781 246.703125 C 238.78125 247.671875 240.386719 248.640625 241.992188 249.613281 L 244.3125 250.988281 L 246.429688 252.285156 L 248.300781 253.417969 L 249.621094 254.527344 L 249.621094 257.039062 L 247.949219 257.933594 C 242.125 261.074219 236.445312 264.402344 230.808594 267.863281 L 228.386719 269.339844 L 225.972656 270.816406 L 223.578125 272.261719 C 221.144531 273.761719 221.144531 273.761719 218.777344 275.566406 C 216.550781 277.179688 214.527344 278.5625 211.992188 279.632812 C 209.867188 279.394531 208.757812 278.753906 206.992188 277.558594 L 205.300781 276.285156 C 203.957031 275.460938 202.605469 274.648438 201.25 273.84375 C 199.792969 272.933594 198.339844 272.023438 196.886719 271.105469 L 192.238281 268.203125 L 189.941406 266.769531 C 186.316406 264.519531 182.65625 262.328125 178.988281 260.148438 C 176.851562 258.875 174.757812 257.582031 172.691406 256.203125 L 172.691406 254.527344 C 173.996094 253.527344 173.996094 253.527344 175.855469 252.398438 L 177.957031 251.105469 L 180.269531 249.714844 L 185.078125 246.792969 L 187.636719 245.25 C 190.289062 243.621094 192.925781 241.96875 195.550781 240.296875 L 200.703125 237.058594 L 203.167969 235.476562 L 205.484375 234.035156 L 207.523438 232.742188 C 209.484375 231.933594 209.484375 231.933594 211.585938 232.09375 "/><path style=" stroke:none;fill-rule:nonzero;fill:#fbb25a;fill-opacity:1;" d="M 209.484375 231.933594 C 211.402344 232.222656 211.402344 232.222656 212.828125 232.769531 L 211.992188 235.28125 C 211.898438 236.679688 211.84375 238.082031 211.820312 239.484375 L 211.769531 242.074219 L 211.726562 244.863281 L 211.675781 247.722656 C 211.621094 250.742188 211.570312 253.757812 211.523438 256.777344 L 211.414062 262.910156 C 211.324219 267.925781 211.238281 272.941406 211.15625 277.957031 L 209.484375 278.796875 C 207.90625 278.023438 207.90625 278.023438 205.980469 276.792969 L 203.8125 275.425781 L 201.488281 273.933594 C 199.890625 272.921875 198.296875 271.917969 196.699219 270.910156 L 194.269531 269.378906 C 190.332031 266.925781 186.328125 264.589844 182.3125 262.265625 C 179.023438 260.355469 175.765625 258.449219 172.691406 256.203125 L 172.691406 254.527344 C 173.996094 253.527344 173.996094 253.527344 175.855469 252.398438 L 177.957031 251.105469 L 180.269531 249.714844 L 185.078125 246.792969 L 187.628906 245.25 C 190.292969 243.617188 192.945312 241.96875 195.582031 240.296875 L 200.757812 237.058594 L 203.238281 235.476562 L 205.566406 234.035156 L 207.617188 232.742188 Z M 209.484375 231.933594 "/><path style=" stroke:none;fill-rule:nonzero;fill:#eb5241;fill-opacity:1;" d="M 321.539062 168.339844 C 326.625 170.257812 331.230469 173 335.960938 175.660156 L 338.734375 177.203125 C 353.070312 185.242188 353.070312 185.242188 355.875 189.152344 L 356.660156 190.933594 C 350.429688 195.261719 343.933594 199.125 337.40625 202.988281 C 335.589844 204.0625 333.773438 205.144531 331.960938 206.226562 L 328.453125 208.304688 L 326.828125 209.273438 C 323.742188 211.097656 320.582031 212.792969 317.355469 214.363281 L 316.519531 212.6875 L 318.191406 212.6875 L 317.355469 211.015625 C 315.949219 206.789062 316.273438 202.613281 317.132812 198.304688 C 317.410156 197.082031 317.691406 195.863281 317.984375 194.644531 L 318.433594 192.679688 C 319.167969 189.476562 319.980469 186.292969 320.859375 183.125 L 321.335938 181.417969 C 321.777344 179.882812 322.222656 178.351562 322.675781 176.820312 C 323.21875 174.148438 323.15625 172.59375 322.375 170.011719 Z M 321.539062 168.339844 "/><path style=" stroke:none;fill-rule:nonzero;fill:#de3443;fill-opacity:1;" d="M 173.527344 492.179688 L 181.886719 494.6875 L 181.886719 496.363281 L 183.304688 496.660156 C 188.832031 498.207031 193.964844 501.425781 198.613281 504.730469 L 198.800781 502.8125 L 199.449219 500.546875 C 201.089844 499.039062 201.089844 499.039062 203.109375 497.773438 L 205.113281 496.476562 C 206.976562 495.527344 206.976562 495.527344 209.484375 495.527344 L 209.484375 502.21875 L 211.15625 502.21875 L 211.15625 517.28125 C 207.597656 516.09375 205.378906 515.3125 202.367188 513.417969 L 200.257812 512.101562 L 198.039062 510.691406 L 195.730469 509.246094 C 193.34375 507.742188 190.960938 506.238281 188.578125 504.730469 L 183.894531 501.777344 C 180.15625 499.421875 176.421875 497.058594 172.691406 494.6875 Z M 173.527344 492.179688 "/><path style=" stroke:none;fill-rule:nonzero;fill:#fa9848;fill-opacity:1;" d="M 211.15625 96.375 C 215.101562 97.6875 217.683594 98.796875 221.085938 100.976562 L 223.535156 102.519531 L 225.371094 103.90625 L 225.371094 105.578125 L 222.863281 106.414062 C 221.738281 105.589844 220.625 104.753906 219.519531 103.90625 C 217.300781 103.308594 217.300781 103.308594 215.335938 103.066406 L 215.335938 104.742188 L 212.828125 105.578125 L 212.828125 110.597656 C 215.296875 110.769531 215.296875 110.769531 217.21875 109.761719 C 220.03125 108.738281 222.402344 108.808594 225.371094 108.925781 C 220.707031 111.304688 215.914062 113.429688 211.15625 115.621094 Z M 211.15625 96.375 "/><path style=" stroke:none;fill-rule:nonzero;fill:#fa9239;fill-opacity:1;" d="M 211.15625 105.578125 L 211.992188 105.578125 L 213.664062 111.4375 L 216.226562 110.179688 C 219.335938 108.828125 221.976562 108.71875 225.371094 108.925781 C 222.410156 110.4375 219.402344 111.824219 216.382812 113.214844 L 213.417969 114.582031 L 211.15625 115.621094 Z M 211.15625 105.578125 "/><path style=" stroke:none;fill-rule:nonzero;fill:#faa55b;fill-opacity:1;" d="M 222.027344 102.230469 L 225.371094 103.90625 L 225.371094 105.578125 L 222.863281 106.414062 L 220.355469 104.742188 C 221.191406 103.066406 221.191406 103.066406 222.027344 102.230469 "/><g style="fill:#ffffff;fill-opacity:0.4;"><g transform="translate(402.176448, 324.615199)"><path style="stroke:none" d="M 55.53125 -107.0625 C 64.632812 -107.0625 71.929688 -105.253906 77.421875 -101.640625 C 82.910156 -98.023438 86.878906 -93.179688 89.328125 -87.109375 C 91.785156 -81.046875 93.015625 -74.316406 93.015625 -66.921875 C 93.015625 -59.515625 91.851562 -52.753906 89.53125 -46.640625 C 87.207031 -40.523438 83.320312 -35.660156 77.875 -32.046875 C 72.4375 -28.429688 64.988281 -26.625 55.53125 -26.625 L 29.4375 -26.625 L 29.4375 0 L 9.375 0 L 9.375 -107.0625 Z M 69.1875 -50.984375 C 71.6875 -54.015625 72.9375 -59.328125 72.9375 -66.921875 C 72.9375 -74.140625 71.644531 -79.398438 69.0625 -82.703125 C 68.789062 -83.054688 68.207031 -83.585938 67.3125 -84.296875 C 66.425781 -85.015625 65.066406 -85.664062 63.234375 -86.25 C 61.398438 -86.832031 58.832031 -87.125 55.53125 -87.125 L 29.4375 -87.125 L 29.4375 -46.703125 L 55.53125 -46.703125 C 62.40625 -46.703125 66.957031 -48.128906 69.1875 -50.984375 Z M 69.1875 -50.984375 "/></g></g><g style="fill:#ffffff;fill-opacity:0.4;"><g transform="translate(504.549844, 324.615199)"><path style="stroke:none" d="M 93.015625 -66.921875 C 93.015625 -60.222656 92.097656 -54.019531 90.265625 -48.3125 C 88.441406 -42.601562 85.296875 -37.921875 80.828125 -34.265625 L 93.015625 0 L 72 0 L 62.359375 -27.03125 C 60.222656 -26.757812 57.945312 -26.625 55.53125 -26.625 L 29.4375 -26.625 L 29.4375 0 L 9.375 0 L 9.375 -107.0625 L 55.53125 -107.0625 C 64.632812 -107.0625 71.929688 -105.253906 77.421875 -101.640625 C 82.910156 -98.023438 86.878906 -93.179688 89.328125 -87.109375 C 91.785156 -81.046875 93.015625 -74.316406 93.015625 -66.921875 Z M 29.4375 -46.703125 L 55.53125 -46.703125 C 62.40625 -46.703125 66.957031 -48.128906 69.1875 -50.984375 C 71.6875 -54.015625 72.9375 -59.328125 72.9375 -66.921875 C 72.9375 -74.140625 71.644531 -79.398438 69.0625 -82.703125 C 68.789062 -83.054688 68.207031 -83.585938 67.3125 -84.296875 C 66.425781 -85.015625 65.066406 -85.664062 63.234375 -86.25 C 61.398438 -86.832031 58.832031 -87.125 55.53125 -87.125 L 29.4375 -87.125 Z M 29.4375 -46.703125 "/></g></g><g style="fill:#ffffff;fill-opacity:0.4;"><g transform="translate(606.92324, 324.615199)"><path style="stroke:none" d="M 29.4375 -0.40625 L 29.4375 -107.0625 L 9.375 -107.0625 L 9.375 -0.40625 Z M 29.4375 -0.40625 "/></g></g><g style="fill:#ffffff;fill-opacity:0.4;"><g transform="translate(645.731447, 324.615199)"><path style="stroke:none" d="M 53.796875 1.34375 C 51.660156 1.34375 48.628906 1.117188 44.703125 0.671875 C 40.773438 0.222656 36.554688 -0.78125 32.046875 -2.34375 C 27.546875 -3.90625 23.242188 -6.335938 19.140625 -9.640625 C 15.304688 -12.847656 12.050781 -16.414062 9.375 -20.34375 L 25.6875 -31.453125 C 26.582031 -30.203125 27.5 -29.039062 28.4375 -27.96875 C 29.375 -26.894531 30.421875 -25.914062 31.578125 -25.03125 C 33.804688 -23.15625 36.28125 -21.769531 39 -20.875 C 41.726562 -19.976562 44.316406 -19.351562 46.765625 -19 C 49.222656 -18.644531 51.253906 -18.46875 52.859375 -18.46875 C 54.460938 -18.46875 55.265625 -18.46875 55.265625 -18.46875 L 55.9375 -18.46875 C 61.46875 -18.46875 65.75 -19.671875 68.78125 -22.078125 C 71.820312 -24.484375 73.429688 -27.117188 73.609375 -29.984375 C 73.785156 -33.097656 72.15625 -36.21875 68.71875 -39.34375 C 65.28125 -42.46875 59.640625 -44.566406 51.796875 -45.640625 C 40.015625 -46.890625 30.644531 -50.722656 23.6875 -57.140625 C 20.207031 -60.359375 17.597656 -63.992188 15.859375 -68.046875 C 14.117188 -72.109375 13.425781 -76.28125 13.78125 -80.5625 C 14.226562 -85.46875 16.054688 -90.128906 19.265625 -94.546875 C 22.484375 -98.960938 27.234375 -102.484375 33.515625 -105.109375 C 39.804688 -107.742188 47.679688 -108.796875 57.140625 -108.265625 C 61.421875 -108.265625 65.679688 -107.726562 69.921875 -106.65625 C 74.160156 -105.59375 78.109375 -104.210938 81.765625 -102.515625 C 85.421875 -100.816406 88.5 -99.03125 91 -97.15625 L 79.5 -81.09375 C 77.882812 -82.34375 75.804688 -83.523438 73.265625 -84.640625 C 70.722656 -85.753906 68.023438 -86.691406 65.171875 -87.453125 C 62.316406 -88.210938 59.550781 -88.59375 56.875 -88.59375 L 56.46875 -88.59375 C 49.15625 -88.945312 43.535156 -88.097656 39.609375 -86.046875 C 35.679688 -83.992188 33.628906 -81.628906 33.453125 -78.953125 C 33.273438 -76.460938 34.191406 -74.253906 36.203125 -72.328125 C 38.210938 -70.410156 40.820312 -68.847656 44.03125 -67.640625 C 47.238281 -66.441406 50.539062 -65.617188 53.9375 -65.171875 L 54.203125 -65.171875 C 63.660156 -64.015625 71.332031 -61.515625 77.21875 -57.671875 C 83.101562 -53.835938 87.335938 -49.332031 89.921875 -44.15625 C 92.515625 -38.988281 93.632812 -33.816406 93.28125 -28.640625 C 93.007812 -23.734375 91.378906 -18.984375 88.390625 -14.390625 C 85.398438 -9.796875 81.207031 -6.046875 75.8125 -3.140625 C 70.414062 -0.242188 63.878906 1.25 56.203125 1.34375 Z M 53.796875 1.34375 "/></g></g><g style="fill:#ffffff;fill-opacity:0.4;"><g transform="translate(748.372504, 324.615199)"><path style="stroke:none" d="M 98.5 -107.0625 L 98.5 0 L 78.5625 0 L 78.5625 -59.421875 L 64.90625 -26.90625 L 42.953125 -26.90625 L 29.4375 -59.15625 L 29.4375 0 L 9.375 0 L 9.375 -107.0625 L 31.453125 -107.0625 L 53.9375 -53.125 L 76.546875 -107.0625 Z M 98.5 -107.0625 "/></g></g><g style="fill:#ffffff;fill-opacity:0.4;"><g transform="translate(856.232586, 324.615199)"><path style="stroke:none" d="M 72.53125 0 L 64.640625 -26.625 L 38.28125 -26.625 L 30.375 0 L 9.375 0 L 40.953125 -107.0625 L 61.96875 -107.0625 L 61.96875 -106.796875 L 93.40625 0 Z M 44.15625 -46.578125 L 58.75 -46.578125 L 51.53125 -71.46875 Z M 44.15625 -46.578125 "/></g></g><g style="fill:#000000;fill-opacity:1;"><g transform="translate(409.985263, 321.617673)"><path style="stroke:none" d="M 55.53125 -107.0625 C 64.632812 -107.0625 71.929688 -105.253906 77.421875 -101.640625 C 82.910156 -98.023438 86.878906 -93.179688 89.328125 -87.109375 C 91.785156 -81.046875 93.015625 -74.316406 93.015625 -66.921875 C 93.015625 -59.515625 91.851562 -52.753906 89.53125 -46.640625 C 87.207031 -40.523438 83.320312 -35.660156 77.875 -32.046875 C 72.4375 -28.429688 64.988281 -26.625 55.53125 -26.625 L 29.4375 -26.625 L 29.4375 0 L 9.375 0 L 9.375 -107.0625 Z M 69.1875 -50.984375 C 71.6875 -54.015625 72.9375 -59.328125 72.9375 -66.921875 C 72.9375 -74.140625 71.644531 -79.398438 69.0625 -82.703125 C 68.789062 -83.054688 68.207031 -83.585938 67.3125 -84.296875 C 66.425781 -85.015625 65.066406 -85.664062 63.234375 -86.25 C 61.398438 -86.832031 58.832031 -87.125 55.53125 -87.125 L 29.4375 -87.125 L 29.4375 -46.703125 L 55.53125 -46.703125 C 62.40625 -46.703125 66.957031 -48.128906 69.1875 -50.984375 Z M 69.1875 -50.984375 "/></g></g><g style="fill:#000000;fill-opacity:1;"><g transform="translate(512.358659, 321.617673)"><path style="stroke:none" d="M 93.015625 -66.921875 C 93.015625 -60.222656 92.097656 -54.019531 90.265625 -48.3125 C 88.441406 -42.601562 85.296875 -37.921875 80.828125 -34.265625 L 93.015625 0 L 72 0 L 62.359375 -27.03125 C 60.222656 -26.757812 57.945312 -26.625 55.53125 -26.625 L 29.4375 -26.625 L 29.4375 0 L 9.375 0 L 9.375 -107.0625 L 55.53125 -107.0625 C 64.632812 -107.0625 71.929688 -105.253906 77.421875 -101.640625 C 82.910156 -98.023438 86.878906 -93.179688 89.328125 -87.109375 C 91.785156 -81.046875 93.015625 -74.316406 93.015625 -66.921875 Z M 29.4375 -46.703125 L 55.53125 -46.703125 C 62.40625 -46.703125 66.957031 -48.128906 69.1875 -50.984375 C 71.6875 -54.015625 72.9375 -59.328125 72.9375 -66.921875 C 72.9375 -74.140625 71.644531 -79.398438 69.0625 -82.703125 C 68.789062 -83.054688 68.207031 -83.585938 67.3125 -84.296875 C 66.425781 -85.015625 65.066406 -85.664062 63.234375 -86.25 C 61.398438 -86.832031 58.832031 -87.125 55.53125 -87.125 L 29.4375 -87.125 Z M 29.4375 -46.703125 "/></g></g><g style="fill:#000000;fill-opacity:1;"><g transform="translate(614.732055, 321.617673)"><path style="stroke:none" d="M 29.4375 -0.40625 L 29.4375 -107.0625 L 9.375 -107.0625 L 9.375 -0.40625 Z M 29.4375 -0.40625 "/></g></g><g style="fill:#000000;fill-opacity:1;"><g transform="translate(653.540262, 321.617673)"><path style="stroke:none" d="M 53.796875 1.34375 C 51.660156 1.34375 48.628906 1.117188 44.703125 0.671875 C 40.773438 0.222656 36.554688 -0.78125 32.046875 -2.34375 C 27.546875 -3.90625 23.242188 -6.335938 19.140625 -9.640625 C 15.304688 -12.847656 12.050781 -16.414062 9.375 -20.34375 L 25.6875 -31.453125 C 26.582031 -30.203125 27.5 -29.039062 28.4375 -27.96875 C 29.375 -26.894531 30.421875 -25.914062 31.578125 -25.03125 C 33.804688 -23.15625 36.28125 -21.769531 39 -20.875 C 41.726562 -19.976562 44.316406 -19.351562 46.765625 -19 C 49.222656 -18.644531 51.253906 -18.46875 52.859375 -18.46875 C 54.460938 -18.46875 55.265625 -18.46875 55.265625 -18.46875 L 55.9375 -18.46875 C 61.46875 -18.46875 65.75 -19.671875 68.78125 -22.078125 C 71.820312 -24.484375 73.429688 -27.117188 73.609375 -29.984375 C 73.785156 -33.097656 72.15625 -36.21875 68.71875 -39.34375 C 65.28125 -42.46875 59.640625 -44.566406 51.796875 -45.640625 C 40.015625 -46.890625 30.644531 -50.722656 23.6875 -57.140625 C 20.207031 -60.359375 17.597656 -63.992188 15.859375 -68.046875 C 14.117188 -72.109375 13.425781 -76.28125 13.78125 -80.5625 C 14.226562 -85.46875 16.054688 -90.128906 19.265625 -94.546875 C 22.484375 -98.960938 27.234375 -102.484375 33.515625 -105.109375 C 39.804688 -107.742188 47.679688 -108.796875 57.140625 -108.265625 C 61.421875 -108.265625 65.679688 -107.726562 69.921875 -106.65625 C 74.160156 -105.59375 78.109375 -104.210938 81.765625 -102.515625 C 85.421875 -100.816406 88.5 -99.03125 91 -97.15625 L 79.5 -81.09375 C 77.882812 -82.34375 75.804688 -83.523438 73.265625 -84.640625 C 70.722656 -85.753906 68.023438 -86.691406 65.171875 -87.453125 C 62.316406 -88.210938 59.550781 -88.59375 56.875 -88.59375 L 56.46875 -88.59375 C 49.15625 -88.945312 43.535156 -88.097656 39.609375 -86.046875 C 35.679688 -83.992188 33.628906 -81.628906 33.453125 -78.953125 C 33.273438 -76.460938 34.191406 -74.253906 36.203125 -72.328125 C 38.210938 -70.410156 40.820312 -68.847656 44.03125 -67.640625 C 47.238281 -66.441406 50.539062 -65.617188 53.9375 -65.171875 L 54.203125 -65.171875 C 63.660156 -64.015625 71.332031 -61.515625 77.21875 -57.671875 C 83.101562 -53.835938 87.335938 -49.332031 89.921875 -44.15625 C 92.515625 -38.988281 93.632812 -33.816406 93.28125 -28.640625 C 93.007812 -23.734375 91.378906 -18.984375 88.390625 -14.390625 C 85.398438 -9.796875 81.207031 -6.046875 75.8125 -3.140625 C 70.414062 -0.242188 63.878906 1.25 56.203125 1.34375 Z M 53.796875 1.34375 "/></g></g><g style="fill:#000000;fill-opacity:1;"><g transform="translate(756.181319, 321.617673)"><path style="stroke:none" d="M 98.5 -107.0625 L 98.5 0 L 78.5625 0 L 78.5625 -59.421875 L 64.90625 -26.90625 L 42.953125 -26.90625 L 29.4375 -59.15625 L 29.4375 0 L 9.375 0 L 9.375 -107.0625 L 31.453125 -107.0625 L 53.9375 -53.125 L 76.546875 -107.0625 Z M 98.5 -107.0625 "/></g></g><g style="fill:#000000;fill-opacity:1;"><g transform="translate(864.041401, 321.617673)"><path style="stroke:none" d="M 72.53125 0 L 64.640625 -26.625 L 38.28125 -26.625 L 30.375 0 L 9.375 0 L 40.953125 -107.0625 L 61.96875 -107.0625 L 61.96875 -106.796875 L 93.40625 0 Z M 44.15625 -46.578125 L 58.75 -46.578125 L 51.53125 -71.46875 Z M 44.15625 -46.578125 "/></g></g><g style="fill:#ff8d55;fill-opacity:0.4;"><g transform="translate(533.944057, 410.023458)"><path style="stroke:none" d="M 44.609375 -65.84375 L 58.109375 -65.84375 L 38.671875 0 L 25.1875 0 L 5.765625 -65.84375 L 19.25 -65.84375 L 31.9375 -22.875 Z M 44.609375 -65.84375 "/></g></g><g style="fill:#ff8d55;fill-opacity:0.4;"><g transform="translate(597.805584, 410.023458)"><path style="stroke:none" d="M 44.609375 0 L 39.75 -16.375 L 23.53125 -16.375 L 18.6875 0 L 5.765625 0 L 25.1875 -65.84375 L 38.109375 -65.84375 L 38.109375 -65.671875 L 57.4375 0 Z M 27.15625 -28.640625 L 36.125 -28.640625 L 31.6875 -43.953125 Z M 27.15625 -28.640625 "/></g></g><g style="fill:#ff8d55;fill-opacity:0.4;"><g transform="translate(661.008744, 410.023458)"><path style="stroke:none" d="M 43.625 -65.84375 L 55.875 -65.84375 L 55.875 -22.796875 C 55.875 -19.453125 55.242188 -16.3125 53.984375 -13.375 C 52.722656 -10.4375 50.976562 -7.851562 48.75 -5.625 C 46.53125 -3.40625 43.96875 -1.664062 41.0625 -0.40625 C 38.15625 0.851562 35.03125 1.484375 31.6875 1.484375 L 30.03125 1.484375 C 26.6875 1.484375 23.546875 0.851562 20.609375 -0.40625 C 17.679688 -1.664062 15.101562 -3.40625 12.875 -5.625 C 10.65625 -7.851562 8.914062 -10.4375 7.65625 -13.375 C 6.394531 -16.3125 5.765625 -19.453125 5.765625 -22.796875 L 5.765625 -65.84375 L 18.109375 -65.84375 L 18.109375 -22.796875 C 18.109375 -20.597656 18.640625 -18.578125 19.703125 -16.734375 C 20.773438 -14.898438 22.21875 -13.445312 24.03125 -12.375 C 25.84375 -11.3125 27.84375 -10.78125 30.03125 -10.78125 L 31.6875 -10.78125 C 33.875 -10.78125 35.875 -11.3125 37.6875 -12.375 C 39.5 -13.445312 40.941406 -14.898438 42.015625 -16.734375 C 43.085938 -18.578125 43.625 -20.597656 43.625 -22.796875 Z M 43.625 -65.84375 "/></g></g><g style="fill:#ff8d55;fill-opacity:0.4;"><g transform="translate(722.648283, 410.023458)"><path style="stroke:none" d="M 18.015625 -12.265625 L 43.859375 -12.265625 L 43.859375 0 L 5.765625 0 L 5.765625 -65.84375 L 18.015625 -65.84375 Z M 18.015625 -12.265625 "/></g></g><g style="fill:#ff8d55;fill-opacity:0.4;"><g transform="translate(772.272641, 410.023458)"><path style="stroke:none" d="M 55.21875 -65.84375 L 55.21875 -53.578125 L 36.625 -53.578125 L 36.625 0 L 24.359375 0 L 24.359375 -53.578125 L 5.765625 -53.578125 L 5.765625 -65.84375 Z M 55.21875 -65.84375 "/></g></g><g style="fill:#000000;fill-opacity:1;"><g transform="translate(538.746635, 408.179915)"><path style="stroke:none" d="M 44.609375 -65.84375 L 58.109375 -65.84375 L 38.671875 0 L 25.1875 0 L 5.765625 -65.84375 L 19.25 -65.84375 L 31.9375 -22.875 Z M 44.609375 -65.84375 "/></g></g><g style="fill:#000000;fill-opacity:1;"><g transform="translate(602.608162, 408.179915)"><path style="stroke:none" d="M 44.609375 0 L 39.75 -16.375 L 23.53125 -16.375 L 18.6875 0 L 5.765625 0 L 25.1875 -65.84375 L 38.109375 -65.84375 L 38.109375 -65.671875 L 57.4375 0 Z M 27.15625 -28.640625 L 36.125 -28.640625 L 31.6875 -43.953125 Z M 27.15625 -28.640625 "/></g></g><g style="fill:#000000;fill-opacity:1;"><g transform="translate(665.811323, 408.179915)"><path style="stroke:none" d="M 43.625 -65.84375 L 55.875 -65.84375 L 55.875 -22.796875 C 55.875 -19.453125 55.242188 -16.3125 53.984375 -13.375 C 52.722656 -10.4375 50.976562 -7.851562 48.75 -5.625 C 46.53125 -3.40625 43.96875 -1.664062 41.0625 -0.40625 C 38.15625 0.851562 35.03125 1.484375 31.6875 1.484375 L 30.03125 1.484375 C 26.6875 1.484375 23.546875 0.851562 20.609375 -0.40625 C 17.679688 -1.664062 15.101562 -3.40625 12.875 -5.625 C 10.65625 -7.851562 8.914062 -10.4375 7.65625 -13.375 C 6.394531 -16.3125 5.765625 -19.453125 5.765625 -22.796875 L 5.765625 -65.84375 L 18.109375 -65.84375 L 18.109375 -22.796875 C 18.109375 -20.597656 18.640625 -18.578125 19.703125 -16.734375 C 20.773438 -14.898438 22.21875 -13.445312 24.03125 -12.375 C 25.84375 -11.3125 27.84375 -10.78125 30.03125 -10.78125 L 31.6875 -10.78125 C 33.875 -10.78125 35.875 -11.3125 37.6875 -12.375 C 39.5 -13.445312 40.941406 -14.898438 42.015625 -16.734375 C 43.085938 -18.578125 43.625 -20.597656 43.625 -22.796875 Z M 43.625 -65.84375 "/></g></g><g style="fill:#000000;fill-opacity:1;"><g transform="translate(727.450862, 408.179915)"><path style="stroke:none" d="M 18.015625 -12.265625 L 43.859375 -12.265625 L 43.859375 0 L 5.765625 0 L 5.765625 -65.84375 L 18.015625 -65.84375 Z M 18.015625 -12.265625 "/></g></g><g style="fill:#000000;fill-opacity:1;"><g transform="translate(777.07522, 408.179915)"><path style="stroke:none" d="M 55.21875 -65.84375 L 55.21875 -53.578125 L 36.625 -53.578125 L 36.625 0 L 24.359375 0 L 24.359375 -53.578125 L 5.765625 -53.578125 L 5.765625 -65.84375 Z M 55.21875 -65.84375 "/></g></g></g></svg>